<?xml version="1.0" encoding="UTF-8" standalone="no"?>
<svg
   viewBox="0 0 501.6 560"
   width="512"
   height="572"
   version="1.1"
   id="svg11"
   xmlns:xlink="http://www.w3.org/1999/xlink"
   xmlns="http://www.w3.org/2000/svg"
   xmlns:svg="http://www.w3.org/2000/svg">
  <defs
     id="defs4">
    <linearGradient
       id="gl"
       x1="0%"
       y1="0%"
       x2="100%"
       y2="100%">
      <stop
         offset="0%"
         stop-color="#1ABC9C"
         id="stop1" />
      <stop
         offset="100%"
         stop-color="#16A085"
         id="stop2" />
    </linearGradient>
    <linearGradient
       id="gd"
       x1="0%"
       y1="0%"
       x2="100%"
       y2="100%">
      <stop
         offset="0%"
         stop-color="#0E6655"
         id="stop3" />
      <stop
         offset="100%"
         stop-color="#16A085"
         id="stop4" />
    </linearGradient>
  </defs>
  <!-- actual nix snowflake, transformed from official SVG -->
  <g
     transform="translate(-156.35, 933.37)"
     opacity="0.85"
     id="g11">
    <g
       transform="matrix(1,0,0,1,-0.06,33.19)"
       id="g10">
      <!-- light arms -->
      <path
         d="m 309.55,-710.39 122.2,211.68 -56.16,0.53 -32.62,-56.87 -32.86,56.57 -27.9,-0.01 -14.29,-24.69 46.81,-80.49 -33.23,-57.83 z"
         fill="url(#gl)"
         id="path4" />
      <use
         xlink:href="#light-arm"
         transform="rotate(120,407.34,-716.08)"
         id="use4" />
      <use
         xlink:href="#light-arm"
         transform="rotate(-120,407.29,-715.87)"
         id="use5" />
      <!-- dark arms -->
      <path
         id="dark-arm"
         d="m 309.55,-710.39 122.2,211.68 -56.16,0.53 -32.62,-56.87 -32.86,56.57 -27.9,-0.01 -14.29,-24.69 46.81,-80.49 -33.23,-57.83 z"
         fill="url(#gd)" />
      <use
         xlink:href="#dark-arm"
         transform="rotate(60,407.11,-715.79)"
         id="use6" />
      <use
         xlink:href="#dark-arm"
         transform="rotate(-60,407.31,-715.7)"
         id="use7" />
      <use
         xlink:href="#dark-arm"
         transform="rotate(180,407.42,-715.76)"
         id="use8" />
      <!-- light arm clones (overwrite dark at same positions) -->
      <path
         d="m 309.55,-710.39 122.2,211.68 -56.16,0.53 -32.62,-56.87 -32.86,56.57 -27.9,-0.01 -14.29,-24.69 46.81,-80.49 -33.23,-57.83 z"
         fill="url(#gl)"
         id="path8" />
      <path
         d="m 309.55,-710.39 122.2,211.68 -56.16,0.53 -32.62,-56.87 -32.86,56.57 -27.9,-0.01 -14.29,-24.69 46.81,-80.49 -33.23,-57.83 z"
         fill="url(#gl)"
         transform="rotate(120,407.34,-716.08)"
         id="path9" />
      <path
         d="m 309.55,-710.39 122.2,211.68 -56.16,0.53 -32.62,-56.87 -32.86,56.57 -27.9,-0.01 -14.29,-24.69 46.81,-80.49 -33.23,-57.83 z"
         fill="url(#gl)"
         transform="rotate(-120,407.29,-715.87)"
         id="path10" />
    </g>
  </g>
  <!-- "nixfiles" text below snowflake -->
  <path
     d="m 111.21992,530 h 6.72 v -17.64 c 0,-4.424 2.408,-7.56 5.768,-7.56 2.688,0 4.312,2.016 4.312,5.32 V 530 h 6.72 v -20.44 c 0,-6.272 -3.584,-10.36 -9.128,-10.36 -3.472,0 -6.16,1.624 -7.728,4.536 h -0.224 v -3.976 h -6.44 z m 36.99202,0 h 23.52 v -6.16 h -8.4 v -24.08 h -14.84 v 6.16 h 8.12 v 17.92 h -8.4 z m 6.104,-39.256 c 0,2.8 2.296,5.096 5.096,5.096 2.856,0 5.096,-2.296 5.096,-5.096 0,-2.856 -2.24,-5.096 -5.096,-5.096 -2.8,0 -5.096,2.24 -5.096,5.096 z M 181.73196,530 h 7.672 l 6.44,-10.752 6.44,10.752 h 7.784 l -9.688,-15.624 8.736,-14.616 h -7.616 l -5.6,9.8 -5.6,-9.8 h -7.784 l 8.792,14.728 z m 47.01602,0 h 6.72 v -24.08 h 9.8 v -6.16 h -9.8 v -0.392 c 0,-3.808 1.792,-5.656 5.488,-5.656 1.568,0 3.248,0.336 4.872,1.064 v -5.6 c -1.68,-0.784 -3.864,-1.176 -6.16,-1.176 -7.168,0 -10.92,3.92 -10.92,11.368 v 0.392 h -7.84 v 6.16 h 7.84 z m 29.26402,0 h 23.52 v -6.16 h -8.4 v -24.08 h -14.84 v 6.16 h 8.12 v 17.92 h -8.4 z m 6.104,-39.256 c 0,2.8 2.296,5.096 5.096,5.096 2.856,0 5.096,-2.296 5.096,-5.096 0,-2.856 -2.24,-5.096 -5.096,-5.096 -2.8,0 -5.096,2.24 -5.096,5.096 z m 43.15202,28.448 V 488.56 h -15.4 v 6.16 h 8.68 v 24.472 c 0,7.448 3.752,11.368 10.92,11.368 2.296,0 4.48,-0.392 6.16,-1.176 v -5.6 c -1.624,0.728 -3.304,1.064 -4.872,1.064 -3.696,0 -5.488,-1.848 -5.488,-5.656 z m 28.08803,-2.464 h 19.32 v -2.52 c 0,-8.904 -5.208,-15.008 -12.768,-15.008 -7.728,0 -13.272,6.44 -13.272,15.512 0,9.24 5.768,15.848 13.888,15.848 5.936,0 10.584,-3.584 11.592,-8.96 h -6.384 c -0.672,1.904 -2.688,3.08 -5.208,3.08 -4.032,0 -6.608,-2.968 -7.168,-7.952 z m 6.552,-11.816 c 3.304,0 5.712,2.576 6.048,6.552 h -12.432 c 0.784,-4.088 3.136,-6.552 6.384,-6.552 z m 25.736,16.688 c 0,5.264 5.096,9.184 11.928,9.184 7.056,0 11.928,-4.2 11.928,-10.248 0,-5.096 -3.472,-7.896 -10.808,-8.736 l -1.512,-0.168 c -2.8,-0.336 -4.032,-1.344 -4.032,-3.192 0,-2.24 1.792,-3.64 4.648,-3.64 2.8,0 4.872,1.344 5.096,3.36 h 6.272 c -0.224,-5.152 -5.096,-8.96 -11.48,-8.96 -6.664,0 -11.144,4.088 -11.144,10.08 0,5.096 3.304,7.896 10.192,8.68 l 1.512,0.168 c 3.192,0.336 4.536,1.288 4.536,3.248 0,2.296 -1.904,3.752 -4.816,3.752 -2.968,0 -5.488,-1.512 -5.824,-3.528 z"
     id="text11"
     style="font-weight:700;font-size:56px;font-family:monospace;letter-spacing:3;text-anchor:middle;fill:#16a085"
     aria-label="nixfiles" />
</svg>
